<?xml version="1.0" standalone="no"?>
<!DOCTYPE svg PUBLIC "-//W3C//DTD SVG 20010904//EN"
 "http://www.w3.org/TR/2001/REC-SVG-20010904/DTD/svg10.dtd">
<svg version="1.0" xmlns="http://www.w3.org/2000/svg"
 width="600.000000pt" height="600.000000pt" viewBox="0 0 600.000000 600.000000"
 preserveAspectRatio="xMidYMid meet">
<metadata>
Created by potrace 1.16, written by Peter Selinger 2001-2019
</metadata>
<g transform="translate(0.000000,600.000000) scale(0.100000,-0.100000)"
fill="#22c74e" stroke="none">
<path d="M914 4799 c-45 -13 -100 -78 -118 -140 -22 -73 -20 -198 5 -326 36
-190 150 -499 257 -697 l48 -89 -43 -76 c-24 -42 -60 -119 -81 -172 l-37 -97
-165 -4 c-140 -4 -178 -9 -251 -31 -84 -25 -223 -86 -216 -94 2 -2 60 6 128
18 77 13 192 23 303 26 l179 6 -7 -49 c-14 -95 -10 -91 -87 -98 -87 -9 -197
-39 -274 -76 -67 -32 -175 -106 -175 -120 0 -5 21 0 48 11 137 59 380 129 448
129 11 0 14 -20 14 -87 0 -365 154 -715 437 -998 340 -340 808 -552 1378 -626
165 -22 531 -16 705 10 743 112 1342 497 1600 1026 91 186 128 334 137 543 3
72 9 132 12 132 64 -2 356 -91 440 -134 37 -20 54 -13 25 9 -109 86 -221 140
-345 165 -52 11 -104 20 -115 20 -18 0 -23 9 -33 57 -18 94 -31 87 147 80 86
-3 211 -15 277 -26 66 -11 124 -21 130 -21 21 0 -35 29 -120 63 -122 48 -222
67 -358 67 -112 0 -115 1 -121 24 -13 52 -81 201 -125 275 l-48 79 56 113
c164 333 261 673 249 873 -13 202 -115 279 -303 231 -179 -47 -437 -211 -727
-462 l-106 -93 -54 24 c-156 69 -436 142 -658 172 -172 23 -519 23 -695 0
-230 -30 -465 -91 -663 -172 l-82 -34 -123 106 c-405 350 -719 514 -893 463z
m1711 -2365 c115 -43 212 -24 341 68 l41 29 67 -50 c85 -64 152 -85 257 -79
90 5 160 35 226 97 24 22 45 36 47 32 3 -5 -7 -28 -23 -52 -23 -37 -29 -60
-34 -135 -13 -179 -85 -397 -179 -541 -43 -66 -52 -72 -84 -48 -30 23 -34 18
-34 -38 0 -45 -4 -57 -27 -79 -85 -79 -225 -93 -330 -32 -62 36 -83 68 -83
125 0 27 -2 49 -5 49 -3 0 -17 -8 -32 -17 -25 -17 -26 -16 -50 12 -90 112
-176 347 -204 559 -13 92 -13 92 -56 126 -24 18 -51 46 -59 61 -14 28 -13 27
69 -16 45 -24 114 -56 152 -71z"/>
</g>
</svg>
